<svg id="visual" viewBox="0 0 960 540" width="960" height="540" xmlns="http://www.w3.org/2000/svg" xmlns:xlink="http://www.w3.org/1999/xlink" version="1.1"><path d="M0 320L22.8 325.5C45.7 331 91.3 342 137 341.8C182.7 341.7 228.3 330.3 274 330.7C319.7 331 365.3 343 411.2 345.2C457 347.3 503 339.7 548.8 338.7C594.7 337.7 640.3 343.3 686 343.2C731.7 343 777.3 337 823 339C868.7 341 914.3 351 937.2 356L960 361L960 541L937.2 541C914.3 541 868.7 541 823 541C777.3 541 731.7 541 686 541C640.3 541 594.7 541 548.8 541C503 541 457 541 411.2 541C365.3 541 319.7 541 274 541C228.3 541 182.7 541 137 541C91.3 541 45.7 541 22.8 541L0 541Z" fill="#4abfbf"></path><path d="M0 392L22.8 390.7C45.7 389.3 91.3 386.7 137 387C182.7 387.3 228.3 390.7 274 396.5C319.7 402.3 365.3 410.7 411.2 408.5C457 406.3 503 393.7 548.8 392.3C594.7 391 640.3 401 686 403.3C731.7 405.7 777.3 400.3 823 399.2C868.7 398 914.3 401 937.2 402.5L960 404L960 541L937.2 541C914.3 541 868.7 541 823 541C777.3 541 731.7 541 686 541C640.3 541 594.7 541 548.8 541C503 541 457 541 411.2 541C365.3 541 319.7 541 274 541C228.3 541 182.7 541 137 541C91.3 541 45.7 541 22.8 541L0 541Z" fill="#0c7e9d"></path><path d="M0 480L22.8 480.3C45.7 480.7 91.3 481.3 137 475.8C182.7 470.3 228.3 458.7 274 455.3C319.7 452 365.3 457 411.2 462.3C457 467.7 503 473.3 548.8 472.2C594.7 471 640.3 463 686 460.3C731.7 457.7 777.3 460.3 823 461.5C868.7 462.7 914.3 462.3 937.2 462.2L960 462L960 541L937.2 541C914.3 541 868.7 541 823 541C777.3 541 731.7 541 686 541C640.3 541 594.7 541 548.8 541C503 541 457 541 411.2 541C365.3 541 319.7 541 274 541C228.3 541 182.7 541 137 541C91.3 541 45.7 541 22.8 541L0 541Z" fill="#1e3f66"></path></svg>